<?xml version="1.0" encoding="utf-8"?>
<!-- Generator: Adobe Illustrator 22.0.1, SVG Export Plug-In . SVG Version: 6.00 Build 0)  -->
<svg version="1.1" id="Layer_1" xmlns="http://www.w3.org/2000/svg" xmlns:xlink="http://www.w3.org/1999/xlink" x="0px" y="0px"
	 viewBox="0 0 1486.9 434.2" style="enable-background:new 0 0 1486.9 434.2;" xml:space="preserve">
<style type="text/css">
	.st0{fill:#4285F4;}
	.st1{fill:#FBBC05;}
	.st2{fill:#EA4335;}
	.st3{fill:#34A853;}
</style>
<g>
	<path class="st0" d="M407.2,429.3c-56.7,0-110-22.1-150.1-62.2c-40.1-40.1-62.2-93.4-62.2-150.1c0-56.7,22.1-110,62.2-150.1
		C297.2,27,350.5,4.9,407.2,4.9c47.6,0,92.6,15.4,130.1,44.5L510,84.6c-29.6-23-65.2-35.2-102.8-35.2
		c-92.5,0-167.7,75.2-167.7,167.7c0,92.5,75.2,167.7,167.7,167.7c39.5,0,77.8-14,108-39.4l28.7,34
		C505.7,411.6,457.2,429.3,407.2,429.3z"/>
</g>
<g>
	<path class="st1" d="M600.9,345.9c21.7,13.4,53.4,24.5,86.8,24.5c49.5,0,78.5-26.2,78.5-64c0-35.1-20-55.1-70.7-74.6
		c-61.2-21.7-99.1-53.4-99.1-106.3c0-58.4,48.4-101.8,121.3-101.8c38.4,0,66.2,8.9,82.9,18.4l-13.4,39.5
		C775,74.9,750,63.8,716.1,63.8c-51.2,0-70.7,30.6-70.7,56.2c0,35.1,22.8,52.3,74.6,72.3c63.4,24.5,95.7,55.1,95.7,110.2
		c0,57.9-42.8,108-131.3,108c-36.2,0-75.7-10.6-95.7-23.9L600.9,345.9z"/>
</g>
<g>
	<path class="st2" d="M909.5,345.9c21.7,13.4,53.4,24.5,86.8,24.5c49.5,0,78.5-26.2,78.5-64c0-35.1-20-55.1-70.7-74.6
		c-61.2-21.7-99.1-53.4-99.1-106.3c0-58.4,48.4-101.8,121.3-101.8c38.4,0,66.2,8.9,82.9,18.4l-13.4,39.5
		c-12.2-6.7-37.3-17.8-71.2-17.8c-51.2,0-70.7,30.6-70.7,56.2c0,35.1,22.8,52.3,74.6,72.3c63.4,24.5,95.7,55.1,95.7,110.2
		c0,57.9-42.8,108-131.3,108c-36.2,0-75.7-10.6-95.7-23.9L909.5,345.9z"/>
</g>
<rect x="1241.9" y="26.8" class="st3" width="40.1" height="380.6"/>
</svg>
