<?xml version="1.0" encoding="utf-8"?>
<!-- Generator: Adobe Illustrator 22.0.1, SVG Export Plug-In . SVG Version: 6.00 Build 0)  -->
<svg version="1.1" xmlns="http://www.w3.org/2000/svg" xmlns:xlink="http://www.w3.org/1999/xlink" x="0px" y="0px"
	 viewBox="0 0 85 85" style="enable-background:new 0 0 85 85;" xml:space="preserve">
<style type="text/css">
	.st0{fill:#FFFFFF;}
	.st1{fill:#8CC9F0;}
	.st2{display:none;}
	.st3{display:inline;}
	.st4{clip-path:url(#SVGID_2_);fill:#FBBC05;}
	.st5{clip-path:url(#SVGID_4_);fill:#EA4335;}
	.st6{clip-path:url(#SVGID_6_);fill:#34A853;}
	.st7{clip-path:url(#SVGID_8_);fill:#4285F4;}
</style>
<g id="Layer_1">
	<g>
		<path class="st0" d="M42.5,0C66,0,85,19,85,42.5S66,85,42.5,85S0,66,0,42.5S19,0,42.5,0z"/>
	</g>
	<g>
		<path class="st1" d="M53.5,34.6c0,1.1-0.9,1.9-1.9,1.9c-1.1,0-1.9-0.9-1.9-1.9c0-1.1,0.9-1.9,1.9-1.9
			C52.7,32.7,53.5,33.5,53.5,34.6z M58,28.8c0-0.4-0.3-0.6-0.7-0.6c-7,0-10.9,1.6-15.9,6.6c-1.1,1.2-2.3,2.5-3.5,3.9l-7.6,0.4
			c-0.2,0-0.4,0.1-0.5,0.3l-4.5,7.7c-0.1,0.2-0.1,0.6,0.1,0.8l1.3,1.3c0.1,0.1,0.3,0.2,0.5,0.2c0.1,0,0.1,0,0.2,0l5.6-1.7l5.7,5.7
			l-1.7,5.6c-0.1,0.2,0,0.5,0.2,0.6l1.3,1.3c0.1,0.1,0.3,0.2,0.5,0.2c0.1,0,0.2,0,0.3-0.1l7.7-4.5c0.2-0.1,0.3-0.3,0.3-0.5l0.4-7.6
			c1.4-1.2,2.8-2.4,3.9-3.5C56.2,40,58,35.5,58,28.8z"/>
	</g>
</g>
<g id="Layer_2" class="st2">
	<g class="st3">
		<defs>
			<path id="SVGID_1_" d="M71.2,37h-28v11.6h16.1c-1.5,7.4-7.8,11.6-16.1,11.6c-9.8,0-17.8-7.9-17.8-17.8s7.9-17.8,17.8-17.8
				c4.2,0,8.1,1.5,11.1,4L63,20c-5.3-4.6-12.2-7.5-19.8-7.5c-16.7,0-30.1,13.4-30.1,30.1s13.4,30.1,30.1,30.1
				c15,0,28.7-10.9,28.7-30.1C71.9,40.7,71.6,38.8,71.2,37z"/>
		</defs>
		<clipPath id="SVGID_2_">
			<use xlink:href="#SVGID_1_"  style="overflow:visible;"/>
		</clipPath>
		<path class="st4" d="M10.4,60.3V24.7l23.2,17.8L10.4,60.3z"/>
	</g>
	<g class="st3">
		<defs>
			<path id="SVGID_3_" d="M71.2,37h-28v11.6h16.1c-1.5,7.4-7.8,11.6-16.1,11.6c-9.8,0-17.8-7.9-17.8-17.8s7.9-17.8,17.8-17.8
				c4.2,0,8.1,1.5,11.1,4L63,20c-5.3-4.6-12.2-7.5-19.8-7.5c-16.7,0-30.1,13.4-30.1,30.1s13.4,30.1,30.1,30.1
				c15,0,28.7-10.9,28.7-30.1C71.9,40.7,71.6,38.8,71.2,37z"/>
		</defs>
		<clipPath id="SVGID_4_">
			<use xlink:href="#SVGID_3_"  style="overflow:visible;"/>
		</clipPath>
		<path class="st5" d="M10.4,24.7l23.2,17.8l9.6-8.3L76,28.8V9.7H10.4V24.7z"/>
	</g>
	<g class="st3">
		<defs>
			<path id="SVGID_5_" d="M71.2,37h-28v11.6h16.1c-1.5,7.4-7.8,11.6-16.1,11.6c-9.8,0-17.8-7.9-17.8-17.8s7.9-17.8,17.8-17.8
				c4.2,0,8.1,1.5,11.1,4L63,20c-5.3-4.6-12.2-7.5-19.8-7.5c-16.7,0-30.1,13.4-30.1,30.1s13.4,30.1,30.1,30.1
				c15,0,28.7-10.9,28.7-30.1C71.9,40.7,71.6,38.8,71.2,37z"/>
		</defs>
		<clipPath id="SVGID_6_">
			<use xlink:href="#SVGID_5_"  style="overflow:visible;"/>
		</clipPath>
		<path class="st6" d="M10.4,60.3l41-31.4l10.8,1.4L76,9.7v65.6H10.4V60.3z"/>
	</g>
	<g class="st3">
		<defs>
			<path id="SVGID_7_" d="M71.2,37h-28v11.6h16.1c-1.5,7.4-7.8,11.6-16.1,11.6c-9.8,0-17.8-7.9-17.8-17.8s7.9-17.8,17.8-17.8
				c4.2,0,8.1,1.5,11.1,4L63,20c-5.3-4.6-12.2-7.5-19.8-7.5c-16.7,0-30.1,13.4-30.1,30.1s13.4,30.1,30.1,30.1
				c15,0,28.7-10.9,28.7-30.1C71.9,40.7,71.6,38.8,71.2,37z"/>
		</defs>
		<clipPath id="SVGID_8_">
			<use xlink:href="#SVGID_7_"  style="overflow:visible;"/>
		</clipPath>
		<path class="st7" d="M76,75.3L33.6,42.5l-5.5-4.1L76,24.7V75.3z"/>
	</g>
</g>
</svg>
